<svg height="512" viewBox="0 0 128 128" width="512" xmlns="http://www.w3.org/2000/svg"><g><path d="m1.75 22.125h124.5v83.744h-124.5z" fill="#2d3c6b"/><path d="m11.75 32.125h104.5v63.744h-104.5z" fill="#fcf9f0"/><path d="m74.008 45.125v37.744a3 3 0 0 0 3 3h26.242a3 3 0 0 0 3-3v-37.744a3 3 0 0 0 -3-3h-26.242a3 3 0 0 0 -3 3zm24.242 32.744h-16.242v-27.744h16.242z" fill="#e80054"/><path d="m64 60.257a1.75 1.75 0 0 1 -1.75-1.75v-7.375a1.75 1.75 0 0 1 3.5 0v7.375a1.75 1.75 0 0 1 -1.75 1.75z" fill="#2d3c6b"/><path d="m64 78.612a1.751 1.751 0 0 1 -1.75-1.75v-7.375a1.75 1.75 0 0 1 3.5 0v7.375a1.751 1.751 0 0 1 -1.75 1.75z" fill="#2d3c6b"/><path d="m53.992 77.866h-12.121v-35.738h-7.483l-12.448 12.309 5.625 5.689 6.306-6.236v23.976h-12.121v8h12.121v.003h8v-.003h12.121z" fill="#73c3f9"/></g></svg>